<svg width="386" height="305" viewBox="0 0 386 305" fill="none" xmlns="http://www.w3.org/2000/svg">
<g clip-path="url(#clip0_1090_15977)">
<path d="M356.596 268.69C342.603 241.135 324.992 215.538 304.223 192.566C258.928 142.183 197.613 100.716 122.019 69.2178C54.799 41.2343 1.19129 32.0616 0.660156 31.9636L6.11977 0C8.44194 0.391891 64.0136 9.91974 134.667 39.3361C214.807 72.6713 280.063 116.967 328.594 170.999C351.283 196.106 370.522 224.079 385.808 254.19L356.596 268.69Z" fill="white"/>
<path d="M193.233 232.381C178.141 232.381 163.388 227.909 150.84 219.53C138.291 211.151 128.511 199.241 122.737 185.308C116.962 171.374 115.451 156.042 118.397 141.251C121.342 126.459 128.61 112.873 139.282 102.21C149.955 91.5464 163.552 84.2853 178.354 81.3445C193.156 78.4038 208.498 79.9155 222.441 85.6886C236.383 91.4616 248.299 101.237 256.682 113.778C265.065 126.318 269.538 141.062 269.535 156.143C269.513 176.358 261.466 195.738 247.161 210.031C232.856 224.324 213.461 232.362 193.233 232.381ZM193.233 112.063C184.508 112.063 175.98 114.648 168.726 119.492C161.472 124.335 155.818 131.22 152.48 139.274C149.141 147.329 148.267 156.192 149.969 164.743C151.671 173.293 155.872 181.148 162.041 187.312C168.21 193.477 176.07 197.675 184.627 199.376C193.184 201.077 202.053 200.204 210.113 196.868C218.173 193.531 225.062 187.882 229.909 180.633C234.756 173.384 237.343 164.861 237.343 156.143C237.33 144.456 232.679 133.252 224.409 124.988C216.14 116.724 204.927 112.076 193.233 112.063Z" fill="#BE1622"/>
<path d="M193.51 305C171.378 304.992 149.554 299.8 129.779 289.838C110.004 279.875 92.8258 265.418 79.6135 247.619C66.4012 229.82 57.521 209.173 53.6812 187.323C49.8415 165.474 51.1485 143.027 57.498 121.774L88.7716 131.197C84.6336 145.221 83.337 159.933 84.9581 174.467C86.5793 189.001 91.0856 203.062 98.2114 215.824C105.337 228.585 114.938 239.787 126.45 248.772C137.961 257.756 151.149 264.34 165.238 268.136C179.326 271.932 194.031 272.864 208.484 270.876C222.937 268.888 236.848 264.021 249.396 256.561C261.944 249.101 272.876 239.2 281.548 227.439C290.219 215.679 296.456 202.298 299.89 188.085C249.762 136.051 189.122 95.355 122.031 68.7205L121.846 68.6339C118.059 67.0757 114.333 65.6412 110.398 64.1077C106.462 62.5742 102.441 61.016 98.3449 59.3341L110.756 29.0479C114.543 30.6061 118.256 32.053 122.192 33.5741C126.127 35.0952 130.099 36.6534 134.158 38.3229C208.306 67.7645 275.014 113.33 329.473 171.736L334.938 177.598L333.704 185.512C328.292 218.864 311.221 249.199 285.543 271.09C259.865 292.981 227.255 305.001 193.547 305H193.51Z" fill="white"/>
</g>
<defs>
<clipPath id="clip0_1090_15977">
<rect width="386" height="305" fill="white"/>
</clipPath>
</defs>
</svg>
