<svg width="1440" height="629" viewBox="0 0 1440 629" fill="none" xmlns="http://www.w3.org/2000/svg">
<rect width="1440" height="629" fill="#1D1D1B"/>
<circle cx="411.5" cy="495.5" r="23.3576" stroke="white" stroke-width="0.284849"/>
<g clip-path="url(#clip0_1090_15940)">
<mask id="mask0_1090_15940" style="mask-type:luminance" maskUnits="userSpaceOnUse" x="396" y="480" width="31" height="31">
<path d="M426.456 480.545H396.547V510.454H426.456V480.545Z" fill="white"/>
</mask>
<g mask="url(#mask0_1090_15940)">
<path d="M411.501 510.454C411.068 496.286 410.715 495.935 396.547 495.499C410.715 495.067 411.066 494.713 411.501 480.545C411.934 494.713 412.288 495.064 426.456 495.499C412.288 495.935 411.937 496.282 411.501 510.454Z" fill="url(#paint0_linear_1090_15940)"/>
</g>
</g>
<circle cx="954.5" cy="59.5" r="23.3576" stroke="white" stroke-width="0.284849"/>
<g clip-path="url(#clip1_1090_15940)">
<mask id="mask1_1090_15940" style="mask-type:luminance" maskUnits="userSpaceOnUse" x="939" y="44" width="31" height="31">
<path d="M969.456 44.5454H939.547V74.4545H969.456V44.5454Z" fill="white"/>
</mask>
<g mask="url(#mask1_1090_15940)">
<path d="M954.501 74.4545C954.068 60.2869 953.715 59.9351 939.547 59.5C953.715 59.067 954.066 58.713 954.501 44.5454C954.934 58.713 955.288 59.0648 969.456 59.5C955.288 59.9351 954.937 60.2825 954.501 74.4545Z" fill="url(#paint1_linear_1090_15940)"/>
</g>
</g>
<g clip-path="url(#clip2_1090_15940)">
<mask id="mask2_1090_15940" style="mask-type:luminance" maskUnits="userSpaceOnUse" x="1059" y="583" width="33" height="33">
<path d="M1091.63 597.437L1073.44 583.368L1059.37 601.563L1077.56 615.632L1091.63 597.437Z" fill="white"/>
</mask>
<g mask="url(#mask2_1090_15940)">
<path fill-rule="evenodd" clip-rule="evenodd" d="M1069.99 587.826L1072.49 589.76L1072.54 589.796L1072.54 589.795C1073.62 590.59 1075.14 590.382 1075.96 589.317L1077.9 586.815L1078.44 587.237L1076.47 589.784C1075.66 590.84 1075.85 592.356 1076.9 593.172C1077.96 593.988 1079.48 593.794 1080.29 592.739L1082.26 590.192L1082.81 590.614L1080.84 593.161C1080.02 594.216 1080.22 595.733 1081.27 596.549C1082.33 597.365 1083.84 597.171 1084.66 596.115L1086.63 593.568L1087.27 594.061L1085.3 596.608C1084.48 597.663 1084.67 599.18 1085.73 599.996L1088.19 601.895L1087.76 602.441L1085.22 600.471C1084.16 599.655 1082.64 599.849 1081.83 600.904C1081.01 601.96 1081.21 603.476 1082.26 604.292L1084.81 606.262L1084.39 606.808L1081.84 604.838C1080.78 604.022 1079.27 604.216 1078.45 605.271C1077.64 606.326 1077.83 607.843 1078.89 608.659L1081.43 610.629L1081.01 611.174L1078.55 609.275C1077.5 608.459 1075.98 608.653 1075.17 609.708L1075.1 609.799L1073.2 612.256L1072.56 611.763L1074.53 609.216C1075.35 608.161 1075.15 606.644 1074.1 605.828C1073.04 605.012 1071.52 605.206 1070.71 606.262L1068.74 608.809L1068.19 608.387L1070.16 605.839C1070.98 604.784 1070.78 603.268 1069.73 602.452C1068.67 601.636 1067.16 601.83 1066.34 602.885L1064.37 605.432L1063.83 605.01L1065.76 602.508C1066.58 601.443 1066.4 599.919 1065.36 599.076L1065.36 599.075L1065.32 599.04L1062.82 597.106L1063.24 596.56L1065.78 598.529C1066.84 599.345 1068.36 599.151 1069.17 598.096C1069.99 597.041 1069.79 595.524 1068.74 594.708L1066.19 592.739L1066.61 592.193L1069.16 594.162C1070.22 594.978 1071.73 594.784 1072.55 593.729C1073.36 592.674 1073.17 591.157 1072.12 590.341L1069.57 588.372L1069.99 587.826ZM1073.53 597.539C1074.58 598.355 1076.1 598.161 1076.92 597.106C1077.73 596.051 1077.54 594.534 1076.48 593.718C1075.43 592.902 1073.91 593.096 1073.09 594.151C1072.28 595.206 1072.47 596.723 1073.53 597.539ZM1077.9 600.916C1078.95 601.731 1080.47 601.537 1081.28 600.482C1082.1 599.427 1081.9 597.91 1080.85 597.095C1079.79 596.279 1078.28 596.473 1077.46 597.528C1076.65 598.583 1076.84 600.1 1077.9 600.916ZM1073.54 601.473C1072.72 602.528 1071.21 602.722 1070.15 601.906C1069.1 601.09 1068.9 599.573 1069.72 598.518C1070.53 597.463 1072.05 597.269 1073.11 598.085C1074.16 598.901 1074.36 600.417 1073.54 601.473ZM1074.52 605.282C1075.57 606.098 1077.09 605.904 1077.91 604.849C1078.72 603.794 1078.53 602.277 1077.47 601.461C1076.42 600.646 1074.9 600.84 1074.09 601.895C1073.27 602.95 1073.46 604.467 1074.52 605.282Z" fill="url(#paint2_linear_1090_15940)" fill-opacity="0.5"/>
</g>
</g>
<defs>
<linearGradient id="paint0_linear_1090_15940" x1="398.641" y1="484.433" x2="423.316" y2="507.388" gradientUnits="userSpaceOnUse">
<stop stop-color="white"/>
<stop offset="1" stop-color="#D9D9D9"/>
</linearGradient>
<linearGradient id="paint1_linear_1090_15940" x1="941.641" y1="48.4336" x2="966.316" y2="71.3888" gradientUnits="userSpaceOnUse">
<stop stop-color="white"/>
<stop offset="1" stop-color="#D9D9D9"/>
</linearGradient>
<linearGradient id="paint2_linear_1090_15940" x1="1074.18" y1="586.266" x2="1068.47" y2="608.598" gradientUnits="userSpaceOnUse">
<stop stop-color="#737373"/>
<stop offset="1" stop-color="#D9D9D9"/>
</linearGradient>
<clipPath id="clip0_1090_15940">
<rect width="29.9091" height="29.9091" fill="white" transform="translate(396.547 480.545)"/>
</clipPath>
<clipPath id="clip1_1090_15940">
<rect width="29.9091" height="29.9091" fill="white" transform="translate(939.547 44.5454)"/>
</clipPath>
<clipPath id="clip2_1090_15940">
<rect width="23" height="23" fill="white" transform="translate(1073.44 583.368) rotate(37.712)"/>
</clipPath>
</defs>
</svg>
